<svg xmlns="http://www.w3.org/2000/svg" width="512" height="512" fill-rule="evenodd" clip-rule="evenodd" image-rendering="optimizeQuality" shape-rendering="geometricPrecision" text-rendering="geometricPrecision" viewBox="0 0 512 512"><defs><clipPath id="a" clip-rule="nonzero"><path d="M256 84c15,-7 32,-9 49,-11 32,-5 54,2 67,15 14,14 20,34 22,57 2,27 20,39 45,46 19,1 36,9 48,22 17,17 24,42 18,65 -14,65 0,98 -41,166 0,1 0,1 -1,1l-414 -1 -1 -56c-18,-74 -63,-106 -33,-190 8,-23 22,-38 34,-47 6,-13 15,-24 26,-32 27,-18 83,9 181,-35z"/></clipPath></defs><rect width="512" height="512" fill="none"/><path fill="#d9f3fd" fill-rule="nonzero" d="M256 84c15,-7 32,-9 49,-11 32,-5 54,2 67,15 14,14 20,34 22,57 2,27 20,39 45,46 19,1 36,9 48,22 17,17 24,42 18,65 -14,65 0,98 -41,166 0,1 0,1 -1,1l-414 -1 -1 -56c-18,-74 -63,-106 -33,-190 8,-23 22,-38 34,-47 6,-13 15,-24 26,-32 27,-18 83,9 181,-35z"/><g clip-path="url(#a)"><path fill="#b4d7e6" fill-rule="nonzero" d="M107 240c-20,-2 -40,2 -59,9l0 0c-18,9 -32,18 -45,35 -23,31 -26,70 -8,103l0 0c0,0 0,1 1,1 20,1 40,-2 58,-10l0 0c19,-9 32,-18 46,-35 23,-31 26,-70 8,-103l0 0c0,0 0,0 -1,0z"/><path fill="#9fbfcd" fill-rule="nonzero" d="M-7 384c1,1 1,2 2,3l0 0c0,0 0,1 1,1 1,0 2,0 3,0l43 -57 32 -13c2,0 3,-2 2,-4 -1,-2 -3,-2 -5,-1l-21 8 24 -31c1,-2 1,-4 -1,-5 -2,-1 -4,0 -5,1l-15 21 1 -22c0,-1 -1,-3 -3,-3 -2,0 -4,1 -4,3l-2 32 -14 18 1 -22c1,-1 -1,-3 -3,-3 -2,0 -3,1 -4,3l-2 32 -30 39z"/><path fill="#b4d7e6" fill-rule="nonzero" d="M162 377c-16,-11 -35,-18 -55,-20l0 0c-21,-2 -37,-2 -59,6 -38,14 -65,46 -70,82l0 0c0,0 0,1 1,1 16,11 35,18 55,21l0 0c21,1 37,1 58,-7 39,-14 65,-45 71,-82l0 0c0,0 0,-1 -1,-1z"/><path fill="#9fbfcd" fill-rule="nonzero" d="M-22 445c0,1 0,2 0,3l0 0c0,1 0,1 1,1 0,1 1,1 2,2l71 -26 35 5c2,0 3,-1 4,-3 0,-1 -1,-3 -3,-3l-24 -4 40 -14c2,-1 2,-3 2,-4 -1,-2 -3,-3 -5,-2l-25 9 14 -17c1,-1 1,-3 -1,-4 -2,-1 -4,-1 -5,1l-21 25 -23 8 15 -17c1,-1 0,-3 -1,-4 -2,-1 -4,-1 -5,1l-21 25 -50 18z"/><path fill="#f3f3fb" fill-rule="nonzero" d="M117 249c-2,-1 -3,-1 -5,-1 13,31 9,67 -12,95 -4,5 -8,9 -12,13 6,0 12,0 18,0 1,-1 2,-2 4,-4 23,-31 26,-70 8,-103l0 0c0,0 0,0 -1,0zm-116 139c1,2 1,3 2,5 2,-2 4,-3 5,-5 -2,0 -5,0 -7,0z"/><path fill="#a3b6d4" fill-rule="nonzero" d="M7 388l-3 4c1,-1 3,-3 4,-4l-1 0z"/><path fill="#8998b0" fill-rule="nonzero" d="M172 386c-3,-2 -6,-4 -10,-6 -6,36 -32,66 -70,80 -21,8 -37,8 -58,7l0 0c-17,-2 -32,-7 -46,-15 0,1 0,1 0,2l0 0c0,0 0,1 1,1 0,1 1,1 2,2 15,10 33,16 53,19l0 0c21,1 37,1 58,-7 39,-14 65,-46 71,-82l0 0c0,0 0,-1 -1,-1z"/><path fill="#9fbfcd" d="M118 249l0 0zm-18 94c21,-28 25,-64 12,-95 2,0 3,0 5,1 1,0 1,0 1,0 18,33 15,72 -8,103 -2,2 -3,3 -4,4 -6,0 -12,0 -18,0 4,-4 8,-8 12,-13z"/><path fill="#9fbfcd" d="M173 387l0 0zm-129 89l0 0zm-10 -9l0 0zm58 -7c38,-14 64,-44 70,-80 4,2 7,4 10,6 1,0 1,1 1,1 -6,35 -31,66 -67,80 -1,1 -2,1 -4,2 -21,8 -37,8 -58,7 -18,-3 -35,-8 -50,-17l5 -2c7,3 15,6 23,8 4,1 8,1 12,2 5,0 9,0 14,0 2,0 3,0 4,0 14,0 26,-2 40,-7z"/></g><path fill="none" d="M256 84c15,-7 32,-9 49,-11 32,-5 54,2 67,15 14,14 20,34 22,57 2,27 20,39 45,46 19,1 36,9 48,22 17,17 24,42 18,65 -14,65 0,98 -41,166 0,1 0,1 -1,1l-414 -1 -1 -56c-18,-74 -63,-106 -33,-190 8,-23 22,-38 34,-47 6,-13 15,-24 26,-32 27,-18 83,9 181,-35z"/><path fill="#023047" fill-rule="nonzero" d="M184 103l13 0c1,0 1,0 1,0l5 18c5,2 10,4 14,6l16 -9 0 0c1,0 1,0 1,0l9 9c1,0 1,1 0,1l-9 16c3,5 5,10 6,15l18 5 0 0c0,0 1,0 1,0l0 13 0 0c0,0 -1,1 -1,1l-18 4c-1,6 -3,11 -6,15l9 16 0 0c1,1 1,1 0,1l-9 9c0,0 0,0 -1,0l-16 -9c-4,3 -9,5 -14,6l-5 18 0 0c0,0 0,1 -1,1l-13 0 0 0c0,0 0,-1 0,-1l-5 -18c-5,-1 -10,-3 -15,-6l-16 9 0 0c0,0 0,0 -1,0l-9 -9c0,0 0,-1 0,-1l10 -16c-3,-4 -5,-9 -7,-15l-18 -4 0 0c0,0 0,-1 0,-1l0 -13 0 0c0,0 0,0 1,0l17 -5c2,-5 4,-10 7,-15l-10 -16 0 0c0,0 0,-1 0,-1l9 -9c1,0 1,0 1,0l16 9c5,-2 10,-4 15,-6l5 -18 0 0c0,0 0,0 0,0zm7 37c-9,0 -16,3 -22,9 -6,5 -9,13 -9,22 0,8 3,16 9,21 6,6 13,9 22,9 8,0 16,-3 22,-9 5,-5 9,-13 9,-21 0,-9 -4,-17 -9,-22 -6,-6 -14,-9 -22,-9z"/><path fill="#32586a" fill-rule="nonzero" d="M191 129c11,0 22,5 29,12 8,8 12,18 12,30 0,11 -4,21 -12,29 -7,7 -18,12 -29,12 -12,0 -22,-5 -30,-12 -7,-8 -12,-18 -12,-29 0,-12 5,-22 12,-30 8,-7 18,-12 30,-12zm0 11c-9,0 -16,3 -22,9 -6,5 -9,13 -9,22 0,8 3,16 9,21 6,6 13,9 22,9 8,0 16,-3 22,-9 5,-5 9,-13 9,-21 0,-9 -4,-17 -9,-22 -6,-6 -14,-9 -22,-9z"/><path fill="none" d="M131 212c0,0 0,0 0,-1"/><path fill="#fb8500" fill-rule="nonzero" d="M121 189l314 0c5,0 8,2 11,4 3,3 5,7 5,11l0 226c0,4 -2,8 -5,10 -3,3 -6,5 -11,5l-314 0c-5,0 -8,-2 -11,-5 -3,-2 -5,-6 -5,-10l0 -226c0,-4 2,-8 5,-11 3,-2 6,-4 11,-4z"/><path fill="#ffb703" fill-rule="nonzero" d="M112 180l314 0c5,0 9,2 11,4 3,3 5,7 5,11l0 226c0,4 -2,8 -5,11 -2,2 -6,4 -11,4l-314 0c-4,0 -8,-2 -11,-4 -3,-3 -5,-7 -5,-11l0 -226c0,-4 2,-8 5,-11 3,-2 7,-4 11,-4z"/><path fill="#c5ecfd" fill-rule="nonzero" d="M127 193c14,0 15,23 0,23 -10,0 -15,-12 -8,-19l0 0c2,-2 5,-4 8,-4z"/><path fill="#c5ecfd" fill-rule="nonzero" d="M160 193c14,0 15,23 0,23 -10,0 -15,-12 -8,-19l0 0c2,-2 5,-4 8,-4z"/><path fill="#c5ecfd" fill-rule="nonzero" d="M193 193c14,0 15,23 0,23 -6,0 -11,-5 -11,-11 0,-5 3,-8 3,-8l0 0c2,-2 5,-4 8,-4z"/><path fill="#219ebc" d="M426 180l-314 0c-4,0 -8,2 -11,4 -3,3 -5,7 -5,11l0 32 346 0 0 -32c0,-4 -2,-8 -5,-11 -2,-2 -6,-4 -11,-4zm-233 13c14,0 15,23 0,23 -6,0 -11,-5 -11,-11 0,-5 3,-8 3,-8 2,-2 5,-4 8,-4zm-41 4l0 0zm8 -4c14,0 15,23 0,23 -10,0 -15,-12 -8,-19 2,-2 5,-4 8,-4zm-41 4l0 0zm8 -4c14,0 15,23 0,23 -10,0 -15,-12 -8,-19 2,-2 5,-4 8,-4z"/><path fill="#c5ecfd" fill-rule="nonzero" d="M136 243l120 0c2,0 4,0 5,2l0 0 0 0 0 0c1,1 2,2 2,4l0 23c0,2 -1,4 -2,5l0 0 0 0 0 0c-1,1 -3,2 -5,2l-120 0c-1,0 -3,-1 -4,-2l0 0 0 0 0 0c-1,-1 -2,-3 -2,-5l0 -23c0,-2 1,-3 2,-4l0 0 0 0 0 -1c1,-1 3,-1 4,-1z"/><polygon fill="#606062" fill-rule="nonzero" points="233 243 236 243 236 279 233 279"/><path fill="#606062" fill-rule="nonzero" d="M252 263c1,0 1,0 1,0l7 7c0,0 0,0 0,1 0,0 0,0 0,0 0,0 -1,0 -1,0 0,0 0,0 0,0l-7 -7c0,0 0,0 0,0 0,0 0,-1 0,-1 0,0 0,0 0,0z"/><path fill="#606062" fill-rule="nonzero" d="M247 250c2,0 4,1 5,3 2,1 3,3 3,5 0,3 -1,5 -3,6 -1,1 -3,2 -5,2 -2,0 -4,-1 -6,-2 -1,-1 -2,-3 -2,-6 0,-2 1,-4 2,-5 2,-2 4,-3 6,-3z"/><path fill="#c5ecfd" fill-rule="nonzero" d="M247 252c2,0 3,1 4,2 1,1 2,3 2,4 0,2 -1,4 -2,5 -1,1 -2,2 -4,2 -2,0 -4,-1 -5,-2 -1,-1 -2,-3 -2,-5 0,-1 1,-3 2,-4 1,-1 3,-2 5,-2z"/><path fill="#606062" fill-rule="nonzero" d="M139 270c1,-1 1,-1 2,-1l74 0c0,0 1,0 1,1 0,1 -1,1 -1,1l-74 0c-1,0 -2,0 -2,-1z"/><path fill="#606062" fill-rule="nonzero" d="M131 343c0,0 -1,1 -1,2 0,0 1,1 1,1l60 0c1,0 1,-1 1,-1 0,-1 0,-2 -1,-2l-60 0z"/><path fill="#606062" fill-rule="nonzero" d="M238 343c-1,0 -1,1 -1,2 0,0 0,1 1,1l59 0c1,0 2,-1 2,-1 0,-1 -1,-2 -2,-2l-59 0z"/><path fill="#606062" fill-rule="nonzero" d="M345 343c-1,0 -2,1 -2,2 0,0 1,1 2,1l59 0c1,0 2,-1 2,-1 0,-1 -1,-2 -2,-2l-59 0z"/><path fill="#606062" fill-rule="nonzero" d="M135 361c-1,0 -2,0 -2,1 0,1 1,1 2,1l78 0c1,0 2,0 2,-1 0,-1 -1,-1 -2,-1l-78 0z"/><path fill="#606062" fill-rule="nonzero" d="M238 361c-1,0 -1,0 -1,1 0,1 0,1 1,1l59 0c1,0 2,0 2,-1 0,-1 -1,-1 -2,-1l-59 0z"/><path fill="#606062" fill-rule="nonzero" d="M324 361c-1,0 -1,0 -1,1 0,1 0,1 1,1l69 0c1,0 1,0 1,-1 0,-1 0,-1 -1,-1l-69 0z"/><path fill="#606062" fill-rule="nonzero" d="M404 398c1,0 2,-1 2,-2 0,0 -1,-1 -2,-1l-59 0c-1,0 -2,1 -2,1 0,1 1,2 2,2l59 0z"/><path fill="#606062" fill-rule="nonzero" d="M297 398c1,0 2,-1 2,-2 0,0 -1,-1 -2,-1l-59 0c-1,0 -1,1 -1,1 0,1 0,2 1,2l59 0z"/><path fill="#606062" fill-rule="nonzero" d="M191 398c1,0 1,-1 1,-2 0,0 0,-1 -1,-1l-60 0c0,0 -1,1 -1,1 0,1 1,2 1,2l60 0z"/><path fill="#606062" fill-rule="nonzero" d="M401 380c0,0 1,0 1,-1 0,0 -1,-1 -1,-1l-79 0c-1,0 -1,1 -1,1 0,1 0,1 1,1l79 0z"/><path fill="#606062" fill-rule="nonzero" d="M297 380c1,0 2,0 2,-1 0,0 -1,-1 -2,-1l-59 0c-1,0 -1,1 -1,1 0,1 0,1 1,1l59 0z"/><path fill="#606062" fill-rule="nonzero" d="M211 380c1,0 2,0 2,-1 0,0 -1,-1 -2,-1l-68 0c-1,0 -2,1 -2,1 0,1 1,1 2,1l68 0z"/><line x1="224" x2="224" y1="324" y2="324" fill="none"/><path fill="#606062" fill-rule="nonzero" d="M357 250l0 0c1,1 2,3 3,4 0,2 0,4 -1,5l-31 58c-1,2 -3,3 -4,3 -2,1 -4,1 -5,0l0 0c-2,-1 -3,-3 -3,-4 -1,-2 -1,-4 0,-5l32 -58c0,-2 2,-3 4,-3 1,-1 3,0 5,0z"/><path fill="#606062" fill-rule="nonzero" d="M362 262l0 0c1,-1 3,-2 4,-2 2,0 3,1 4,2l0 0 0 0 0 0 19 19 0 0c1,1 2,3 2,4 0,2 -1,3 -2,4l0 0 -19 19 0 0c-1,1 -2,2 -4,2 -1,0 -3,-1 -4,-2l0 0 0 0c-1,-1 -2,-3 -2,-4 0,-1 1,-3 2,-4l0 0 0 0 0 0 15 -15 -15 -15 0 0c-1,-1 -2,-2 -2,-4 0,-1 1,-3 2,-4l0 0z"/><path fill="#606062" fill-rule="nonzero" d="M313 262l0 0c-1,-1 -2,-2 -4,-2 -1,0 -3,1 -4,2l0 0 0 0 0 0 -19 19 0 0c-1,1 -2,3 -2,4 0,2 1,3 2,4l0 0 19 19 0 0c1,1 3,2 4,2 2,0 3,-1 4,-2l0 0 0 0c1,-1 2,-3 2,-4 0,-1 -1,-3 -2,-4l0 0 0 0 0 0 -15 -15 15 -15 0 0c1,-1 2,-2 2,-4 0,-1 -1,-3 -2,-4l0 0z"/><path fill="#606062" fill-rule="nonzero" d="M170 288l4 0c0,0 1,0 1,0l1 6c2,0 4,1 5,2l6 -3 0 0c0,0 0,0 0,0l3 3c0,0 0,0 0,0l-3 6c1,2 2,3 2,5l7 2 0 0c0,0 0,0 0,0l0 4 0 0c0,1 0,1 0,1l-7 1c0,2 -1,4 -2,5l3 6 0 0c0,0 0,0 0,0l-3 4c0,0 0,0 0,0l-6 -4c-1,1 -3,2 -5,2l-1 7 0 0c0,0 -1,0 -1,0l-4 0 0 0c0,0 0,0 0,0l-2 -7c-2,0 -4,-1 -5,-2l-6 4 0 0c0,0 0,0 0,0l-3 -4c0,0 0,0 0,0l3 -6c-1,-1 -2,-3 -2,-5l-6 -1 0 0c-1,0 -1,0 -1,-1l0 -4 0 0c0,0 0,0 1,0l6 -2c0,-2 1,-3 2,-5l-3 -6 0 0c0,0 0,0 0,0l3 -3c0,0 0,0 0,0l6 3c1,-1 3,-2 5,-2l2 -6 0 0c0,0 0,0 0,0zm2 12c-3,0 -6,2 -8,4 -1,2 -3,4 -3,7 0,3 2,6 3,8 2,2 5,3 8,3 3,0 6,-1 8,-3 2,-2 3,-5 3,-8 0,-3 -1,-5 -3,-7 -2,-2 -5,-4 -8,-4z"/><path fill="#464749" fill-rule="nonzero" d="M172 297c4,0 8,1 10,4 3,3 5,6 5,10 0,4 -2,8 -5,10 -2,3 -6,5 -10,5 -4,0 -8,-2 -10,-5 -3,-2 -4,-6 -4,-10 0,-4 1,-7 4,-10 2,-3 6,-4 10,-4zm0 3c-3,0 -6,2 -8,4 -1,2 -3,4 -3,7 0,3 2,6 3,8 2,2 5,3 8,3 3,0 6,-1 8,-3 2,-2 3,-5 3,-8 0,-3 -1,-5 -3,-7 -2,-2 -5,-4 -8,-4z"/><g><path fill="none" d="M445 151c0,0 4,12 11,15 0,0 -14,0 -22,-1 0,0 6,-3 11,-14z"/><path fill="#fe5746" d="M388 97c0,0 -15,4 -11,34 3,22 12,36 16,42 10,-5 14,-15 14,-15 2,-1 5,-2 7,-3 -1,-3 -5,-14 -3,-16 2,-3 7,-11 5,-18 0,0 -11,-3 -17,-20 0,0 -6,0 -11,-4z"/><path fill="#e8ad80" d="M411 68c-2,5 -7,16 -18,24 -4,3 -8,5 -10,8 4,3 8,3 10,4 3,-3 8,-8 9,-8 0,0 12,8 14,-12 2,-19 -4,-17 -5,-16z"/><path fill="#606062" d="M398 92c8,-5 12,-14 13,-18 1,-1 1,-2 1,-2 0,0 2,-1 3,5 1,5 -3,16 -3,16l-10 3 -6 5c8,21 20,20 20,20l5 -24c0,-3 1,-12 1,-20 -1,-8 -8,-13 -8,-13 0,0 -6,-4 -18,-3 -15,2 -6,25 -9,36 0,0 1,0 1,0 0,0 0,0 0,0 4,-1 7,-3 10,-5z"/><path fill="#e8ad80" fill-rule="nonzero" d="M383 105c0,0 7,0 11,11 1,1 9,15 14,21 3,-1 14,0 21,-4l1 -1 11 -1 0 0 1 0c0,0 1,1 -1,3 -5,5 -17,8 -23,11l-1 0c0,0 -6,3 -10,2 -1,0 -4,-1 -6,-3 -3,-1 -5,-3 -7,-6 -3,-2 -5,-6 -8,-10 -3,-5 -5,-11 -5,-12l0 0c-1,0 -1,-1 -1,-1 0,-3 -1,-7 2,-9l1 -1z"/><path fill="#606062" fill-rule="nonzero" d="M467 103c1,-3 -1,-5 -3,-6 -2,0 -5,1 -5,4l-7 28 -29 13c-2,1 -3,4 -2,6 0,2 3,3 5,2l31 -14c1,0 2,-1 3,-3l0 0 7 -30z"/><path fill="#b93f33" d="M381 116l0 0zm3 8c1,1 2,3 2,4 2,2 3,4 5,6l10 -6c-3,-6 -6,-11 -7,-12 0,-2 -1,-3 -2,-4 -4,-7 -9,-7 -9,-7l-1 1c-3,2 -2,6 -2,9 0,0 0,1 1,1 0,1 1,4 3,8z"/><path fill="#3789db" d="M434 165c0,0 6,-3 11,-14 0,0 4,12 11,15 0,0 -14,0 -22,-1zm-26 -9c0,0 -5,12 -15,17 0,0 4,9 17,10l45 0c0,0 -4,4 -6,12 -2,7 -2,18 -1,20l8 -1c2,-10 7,-22 8,-32l0 -6c-3,-3 -5,-4 -5,-4l6 -4c1,0 2,-1 4,-2 0,0 -18,-21 -20,-26 0,0 -24,11 -41,16z"/><path fill="#e8ad80" d="M455 214l-6 0c0,3 -1,7 -3,9 -2,2 -3,4 -2,7l0 11c0,0 1,2 4,3 2,0 2,-3 2,-3 0,0 0,-7 0,-11 0,0 3,-6 3,-8l2 -8z"/><path fill="#e8ad80" d="M469 166l-10 6c0,0 9,7 11,9 0,0 0,6 1,7l34 0c0,0 -5,-1 -20,-8 -15,-8 -16,-14 -16,-14z"/></g><g><path fill="#ffb703" fill-rule="nonzero" d="M6 370c1,-19 20,-26 20,-26l0 0c22,-3 16,14 17,16 2,2 19,27 24,27 9,0 20,11 20,11l0 1c-2,18 -17,19 -18,19 -2,0 -22,2 -38,0 -18,-3 -23,-14 -23,-14l0 0c0,0 -3,-15 -2,-34z"/><path fill="#fb8500" d="M37 412c-17,-2 -22,-13 -22,-13l0 -1c0,0 -3,-14 -2,-33 1,-8 4,-15 8,-19 -6,4 -14,11 -15,24 -1,19 2,34 2,34l0 0c0,0 5,11 23,14 16,2 36,0 38,0 1,0 9,-1 14,-8 -4,2 -7,2 -7,2 -2,0 -23,3 -39,0z"/><ellipse cx="50" cy="394" fill="#fed865" rx="18" ry="10"/><ellipse cx="64" cy="401" fill="#fed865" rx="18" ry="10"/><ellipse fill="#fed865" rx="46" ry="27" transform="rotate(-135 94.873 182.294) scale(.38417)"/><g><path fill="none" d="M75 445c0,0 0,-1 0,-1l-12 -46c0,-1 -1,-1 -1,-1 -1,0 -1,1 -1,1l13 47c0,0 0,0 0,0 0,0 0,0 0,0"/><path fill="#e8ad80" fill-rule="nonzero" d="M81 432c0,1 0,1 1,1 1,0 5,0 6,0 1,0 1,0 1,-1l0 -12 0 0c0,-1 0,-1 -1,-1l-6 0 0 0c-1,0 -1,0 -1,1l0 12z"/><path fill="#201005" fill-rule="nonzero" d="M79 431c0,3 0,7 1,10l0 0 0 0 0 0 0 0c0,1 0,2 1,2l0 0c1,1 2,1 3,1l0 0 0 0 0 0c1,0 7,0 7,0l0 0c0,0 2,0 5,0 2,1 3,1 4,0 1,0 1,0 1,0 2,0 4,-1 5,-3 1,0 1,-1 1,-1l0 0c1,-1 1,-2 0,-3 0,-1 -1,-2 -3,-2l0 0c-4,0 -10,-4 -14,-6 -1,1 -7,4 -11,2z"/><path fill="#2d6fb1" fill-rule="nonzero" d="M47 372l29 0 0 0 0 0 10 0c3,0 5,1 7,3 2,2 3,4 3,7l0 0 0 10 0 29 0 0 0 0 -19 0c0,0 0,0 -1,0 0,-1 0,-1 0,-1l0 -28 -19 0c-3,0 -5,-1 -7,-3 -2,-2 -3,-4 -3,-7l0 -10 0 0 0 0z"/><path fill="#e8ad80" fill-rule="nonzero" d="M70 432c0,1 0,1 1,1 1,0 5,0 6,0 1,0 1,0 1,-1l0 -12 0 0c0,-1 0,-1 -1,-1l-6 0 0 0c-1,0 -1,0 -1,1l0 12z"/><path fill="#281407" fill-rule="nonzero" d="M68 431c0,3 0,7 1,10l0 0 0 0 0 0 0 0c0,1 0,2 1,2l0 0c1,1 2,1 3,1l0 0 0 0 0 0c1,0 7,0 7,0l0 0c0,0 2,0 5,0 2,1 3,1 4,0 1,0 1,0 1,0 2,0 4,-1 5,-3 1,0 1,-1 1,-1l0 0c1,-1 1,-2 0,-3 0,-1 -1,-2 -3,-2l0 0c-4,0 -10,-4 -14,-6 -1,1 -7,4 -11,2z"/><path fill="#3789db" fill-rule="nonzero" d="M36 372l29 0 0 0 0 0 10 0c3,0 5,1 7,3 2,2 3,4 3,7l0 0 0 10 0 29 0 0 0 0 -19 0c0,0 0,0 -1,0 0,-1 0,-1 0,-1l0 -28 -19 0c-3,0 -5,-1 -7,-3 -2,-2 -3,-4 -3,-7l0 -10 0 0 0 0z"/><line x1="103" x2="103" y1="372" y2="372" fill="none"/><line x1="47" x2="47" y1="307" y2="307" fill="none"/><path fill="#e8ad80" fill-rule="nonzero" d="M72 303l-1 0c1,-8 -4,-10 -5,-11l0 0c0,0 0,0 -1,0l0 0c-1,2 -3,3 -4,3 -1,1 -3,1 -5,1 -5,0 -7,6 -7,8l-1 0 0 0c0,0 0,0 0,0l0 0c-2,1 -1,3 -1,3l0 0 0 0c0,3 2,4 3,4 0,2 3,11 11,9 8,-1 9,-7 9,-9 1,-1 3,-2 3,-4l0 0 0 0 0 0c0,-1 1,-3 -1,-4 0,0 0,0 0,0z"/><path fill="#e8ad80" d="M61 320c2,0 3,-1 4,-1 1,2 4,4 8,7 -2,4 -7,4 -13,4 -5,0 -11,0 -12,-4 1,-1 6,-3 7,-7 1,1 3,1 6,1z"/><path fill="#606062" d="M65 293c-3,3 -5,3 -9,3 -5,0 -6,5 -7,7 -2,-3 -1,-7 -1,-7 0,0 -1,-5 6,-9 6,-4 12,2 12,2 0,0 6,0 7,7 0,4 -1,6 -2,7l0 0c1,-8 -5,-11 -6,-10z"/><path fill="#fe5746" d="M84 372l0 -17 5 6c0,0 1,0 2,0l11 -8c0,-1 0,-1 0,-2 -1,0 -1,-1 -2,-3 -2,-3 -6,-9 -9,-14 -2,-2 -3,-4 -4,-6 -2,-2 -3,-2 -4,-2l-10 0c-1,2 -7,4 -13,4 -6,0 -11,-2 -12,-4l-10 0c-1,0 -2,0 -4,2 -1,2 -3,4 -5,6 -3,5 -6,11 -8,14 -1,2 -2,3 -2,3 -1,1 -1,1 0,2l11 8c0,0 1,0 1,0l5 -6c0,4 0,12 0,17l48 0z"/><path fill="#e8ad80" fill-rule="nonzero" d="M22 354l-3 12 0 0 0 0 0 0c1,5 6,4 7,4l27 -3c1,0 2,0 4,0 1,0 2,0 3,0 1,0 2,-1 3,-1 1,-1 2,-1 2,-2l0 0 0 0c1,0 1,-1 1,-1 0,-1 0,-1 0,-2l0 0 0 0 0 0 0 0c-2,-2 -5,-2 -7,-3 -3,0 -5,2 -6,3l-21 0 -2 0 -8 -7z"/><path fill="#fe5746" fill-rule="nonzero" d="M22 354l0 0 8 7c0,0 1,0 1,0l1 -1 -10 -6z"/><path fill="none" d="M101 283c0,0 0,0 0,0"/><path fill="none" d="M97 325c0,0 0,0 0,0"/><path fill="#bc8c68" fill-rule="nonzero" d="M65 301c0,0 -1,0 -1,0l0 0c-1,0 -1,1 -1,2 0,0 0,1 1,1l0 0c0,0 1,1 1,1 1,0 2,-1 2,-1l0 0c1,0 1,-1 1,-1 0,-1 0,-2 -1,-2l0 0c0,0 -1,0 -2,0z"/><path fill="#bc8c68" fill-rule="nonzero" d="M57 301c-1,0 -1,0 -2,0l0 0c0,0 -1,1 -1,2 0,0 1,1 1,1l0 0c1,0 1,1 2,1 1,0 1,-1 2,-1l0 0c0,0 1,-1 1,-1 0,-1 -1,-2 -1,-2l0 0c-1,0 -1,0 -2,0z"/><path fill="#bc8c68" fill-rule="nonzero" d="M63 310c0,0 1,0 1,0 0,1 0,1 0,1 0,0 -3,2 -5,0 -1,0 -1,0 -1,-1 1,0 1,0 1,0 2,1 4,0 4,0z"/><path fill="#e6e6e6" fill-rule="nonzero" d="M65 303c0,0 0,0 -1,0l0 0c0,0 0,0 0,1 0,0 0,0 0,0l0 0c1,0 1,1 1,1 1,0 1,-1 1,-1l0 0c0,0 1,0 1,0 0,-1 -1,-1 -1,-1l0 0c0,0 0,0 -1,0z"/><path fill="#e6e6e6" fill-rule="nonzero" d="M57 303c0,0 -1,0 -1,0l0 0c0,0 0,0 0,1 0,0 0,0 0,0l0 0c0,0 1,1 1,1 0,0 1,-1 1,-1l0 0c0,0 0,0 0,0 0,-1 0,-1 0,-1l0 0c0,0 -1,0 -1,0z"/><path fill="#5c5f64" fill-rule="nonzero" d="M38 371l30 0c0,0 1,0 1,0 0,1 1,1 1,2 0,0 -1,1 -1,1l0 0c0,0 -1,1 -1,1l-30 0c0,0 -1,-1 -1,-1l0 0c0,0 0,-1 0,-1 0,-1 0,-1 0,-2l0 0c0,0 1,0 1,0z"/><path fill="#5c5f64" fill-rule="nonzero" d="M104 375l-42 0 0 0c0,0 0,0 0,0 0,0 0,-1 0,-1l0 0 7 -30c1,-2 2,-3 3,-5l0 0 0 0c1,-1 2,-1 4,-1l35 0c0,0 1,0 2,0 1,0 2,1 3,2 1,1 2,2 2,3 0,1 0,1 0,1l-7 24c-1,2 -2,4 -3,5l0 0 0 0c-1,1 -2,2 -4,2z"/><path fill="#a4a8bc" fill-rule="nonzero" d="M90 352c1,0 2,0 3,1 1,1 1,2 1,3 0,1 0,2 -1,3 -1,1 -2,1 -3,1 -1,0 -3,0 -3,-1 -1,-1 -2,-2 -2,-3 0,-1 1,-2 2,-3 0,-1 2,-1 3,-1z"/><path fill="#b5b9c9" d="M88 352c2,0 3,1 4,1 0,1 1,2 1,3 0,2 -1,3 -1,3 -1,1 -1,1 -2,1 1,0 2,0 3,-1 1,-1 1,-2 1,-3 0,-1 0,-2 -1,-3 -1,-1 -2,-1 -3,-1 -1,0 -2,0 -2,0 0,0 0,0 0,0z"/></g></g><g><path fill="#023047" fill-rule="nonzero" d="M289 63l8 0c0,0 0,1 0,1l3 11c3,1 7,2 10,4l10 -6 0 0c0,0 0,0 0,0l6 6c0,0 0,0 0,1l-6 10c2,3 3,6 4,9l12 3 0 0c0,0 0,0 0,1l0 8 0 0c0,0 0,0 0,0l-12 3c-1,4 -2,7 -4,10l6 10 0 0c0,0 0,0 0,0l-6 6c0,0 0,0 0,0l-10 -6c-3,2 -7,3 -10,4l-3 12 0 0c0,0 0,0 0,0l-8 0 0 0c-1,0 -1,0 -1,0l-3 -12c-3,-1 -6,-2 -9,-4l-10 6 0 0c-1,0 -1,0 -1,0l-6 -6c0,0 0,0 0,0l6 -10c-2,-3 -3,-7 -4,-10l-11 -3 0 0c0,0 -1,0 -1,0l0 -8 0 0c0,-1 1,-1 1,-1l11 -3c1,-3 2,-6 4,-9l-6 -10 0 0c0,-1 0,-1 0,-1l6 -6c0,0 0,0 1,0l10 6c3,-2 6,-3 9,-4l3 -11 0 0c0,0 0,-1 1,-1zm4 24c-6,0 -11,2 -14,6 -4,3 -6,8 -6,14 0,5 2,10 6,14 3,3 8,5 14,5 5,0 10,-2 14,-5 3,-4 5,-9 5,-14 0,-6 -2,-11 -5,-14 -4,-4 -9,-6 -14,-6z"/><path fill="#32586a" fill-rule="nonzero" d="M293 80c7,0 14,3 18,8 5,5 8,11 8,19 0,7 -3,14 -8,18 -4,5 -11,8 -18,8 -8,0 -14,-3 -19,-8 -5,-4 -8,-11 -8,-18 0,-8 3,-14 8,-19 5,-5 11,-8 19,-8zm0 7c-6,0 -11,2 -14,6 -4,3 -6,8 -6,14 0,5 2,10 6,14 3,3 8,5 14,5 5,0 10,-2 14,-5 3,-4 5,-9 5,-14 0,-6 -2,-11 -5,-14 -4,-4 -9,-6 -14,-6z"/></g><g><polyline fill="none" points="455 327 455 327 455 327"/><polyline fill="none" points="461 308 461 308 461 308"/><polyline fill="none" points="459 306 459 306 459 306"/><path fill="#528741" fill-rule="nonzero" d="M460 325c-1,0 -1,0 -1,0 0,0 0,0 1,0 2,0 5,1 6,2 2,2 3,4 3,7l0 57c0,0 0,0 0,0 -1,0 -1,0 -1,0l0 -57c0,-2 -1,-4 -2,-6 -2,-2 -4,-3 -6,-3z"/><path fill="#528741" fill-rule="nonzero" d="M485 349c0,0 1,0 1,1 0,0 -1,0 -1,0l0 0c-1,0 -3,1 -4,2 -1,1 -1,2 -1,3l0 36c0,0 0,0 -1,0 0,0 0,0 0,0l0 -36c0,-1 1,-3 2,-4 1,-1 2,-2 4,-2l0 0z"/><path fill="#129960" fill-rule="nonzero" d="M501 368c0,3 -1,6 -2,8 0,1 0,1 0,1l0 0c-3,-1 -6,-2 -8,-4 -3,-2 -5,-4 -6,-7 -1,-2 -2,-5 -2,-8 0,-3 1,-6 2,-9 0,0 0,0 0,0l0 0c3,1 6,2 8,4 2,2 4,4 6,6 1,3 2,6 2,9z"/><path fill="#547562" fill-rule="nonzero" d="M485 349c0,0 0,0 0,0l0 0 0 0 9 18c0,0 0,0 0,0 0,0 0,0 0,0l-9 -17 0 -1z"/><path fill="#547562" fill-rule="nonzero" d="M491 362c0,3 -2,4 -2,4 -1,1 -1,1 -1,1 1,0 1,0 1,0 0,0 3,-2 3,-4 2,1 5,0 5,0 0,0 0,0 0,-1 0,0 0,0 0,0 0,0 -3,2 -5,0 0,0 -1,0 -1,0 0,0 0,0 0,0z"/><path fill="#547562" fill-rule="nonzero" d="M489 358c0,2 -3,4 -3,4 0,0 0,0 0,0 0,0 0,0 0,0 0,0 3,-1 3,-4 3,1 6,0 6,0 0,0 0,0 0,0 0,0 -1,0 -1,0 0,0 -2,1 -5,-1 0,0 0,0 0,0 0,0 0,1 0,1z"/><path fill="#528741" fill-rule="nonzero" d="M452 349c0,0 0,0 0,1 0,0 0,0 0,0l0 0c2,0 3,1 4,2 1,1 1,2 1,3l0 36c0,0 1,0 1,0 0,0 0,0 0,0l0 -36c0,-1 0,-3 -1,-4 -2,-1 -3,-2 -5,-2l0 0z"/><path fill="#129960" fill-rule="nonzero" d="M437 368c-1,3 0,6 1,8 0,1 1,1 1,1l0 0c3,-1 5,-2 8,-4 2,-2 4,-4 5,-7 2,-2 2,-5 2,-8 0,-3 0,-6 -1,-9 -1,0 -1,0 -1,0l0 0c-3,1 -5,2 -8,4 -2,2 -4,4 -5,6 -2,3 -2,6 -2,9z"/><path fill="#547562" fill-rule="nonzero" d="M453 349c-1,0 -1,0 -1,0l0 0 0 0 -9 18c0,0 0,0 0,0 0,0 1,0 1,0l9 -17 0 -1z"/><path fill="#547562" fill-rule="nonzero" d="M446 362c0,3 3,4 3,4 0,1 0,1 0,1 0,0 0,0 -1,0 0,0 -2,-2 -2,-4 -3,1 -6,0 -6,0 0,0 0,0 0,-1 0,0 0,0 1,0 0,0 2,2 5,0 0,0 0,0 0,0 0,0 0,0 0,0z"/><path fill="#547562" fill-rule="nonzero" d="M448 358c0,2 3,4 3,4 0,0 0,0 0,0 0,0 0,0 0,0 0,0 -3,-1 -3,-4 -2,1 -5,0 -5,0 0,0 0,0 0,0 0,0 0,0 0,0 0,0 3,1 5,-1 0,0 0,0 0,0 0,0 0,1 0,1z"/><path fill="#fe5746" fill-rule="nonzero" d="M459 313l0 0 0 0 0 0 0 0 0 0 0 0 0 0 0 0 0 0 0 0c0,0 0,0 0,0l0 0 0 0 0 0 0 0 1 0 0 0 0 0 0 0 0 0 0 0 0 0 0 0 0 0 0 0 0 0 0 0 0 0 0 0 0 0 0 0 0 0 0 0 0 0 0 0 0 0 0 0 0 0 0 0 0 0 0 0 0 0 0 0 0 0 0 0 0 0 0 0 0 0 0 0 0 0 0 0 0 0 0 0 0 0 0 0 0 0 0 0 0 0 0 0 0 0 0 0 0 0 0 0 0 0 0 0 0 0c0,0 0,0 0,0l0 0 0 0 0 0 0 0 0 0 0 0 0 0 1 0 0 0 0 0 0 0 0 0 0 0 0 0 0 0 0 0 0 0 0 0 0 1 0 0 0 0 0 0 0 0 0 0 0 0 0 0 0 0 0 0 0 0 0 0 0 0 0 0 0 0 0 0 0 0 0 0 0 0 0 0 0 0 0 0 0 0 0 0 0 0 0 0 0 0 0 0 0 0 0 0 0 0 0 0 0 0 0 0 0 0c0,0 0,0 0,0l0 0 0 0 0 0 0 0 0 0 0 0 0 0 0 0 0 0 0 0 0 0 0 0 0 0 0 0 0 0 0 0 0 0 0 0 0 0 0 0 0 0 0 0 0 0 0 0 0 0 0 0 1 0 0 0 0 0 0 0 0 0 0 0 0 0 0 0 0 0 0 0 0 0 0 0 0 0 0 0 0 0 0 0 0 0 0 0 0 0 0 0 0 0 0 0 0 0 0 0 0 0 0 0 0 0 0 0 0 0 0 0 0 0 0 0 0 0 0 0 0 0c0,0 0,0 0,0l0 0 0 0 0 1 0 0 0 0 0 0 0 0 0 0 0 0 0 0 0 0 0 0 0 0 0 0 0 0 0 0 0 0 0 0 0 0 0 0 0 0 0 0 0 0 0 0 0 0 0 0 0 0 0 0 0 0 0 0 0 0 0 0 0 0 0 0 0 0 0 0 0 0 0 0c0,0 0,0 0,0l0 0 0 0 0 0 0 0 0 0 0 0 0 0 0 0 0 0 0 0 0 0 0 0 0 0 0 0 0 0 0 0 0 0 0 0 0 0 0 0 0 0 0 0 0 0 0 0 0 0 0 0 0 0 0 1 0 0 0 0 0 0 0 0 0 0 0 0 0 0 0 0 0 0 0 0 0 0 0 0 0 0 0 0 0 0 0 0 0 0 0 0 0 0 0 0 0 0 0 0 0 0 0 0 0 0 0 0 0 0 0 0 0 0 0 0 1 0 0 0 0 0 0 0 0 0 0 0 0 0 0 0 0 0 0 0c0,0 0,0 0,0l0 0 0 0 0 0 0 0 0 0 0 0 0 0 0 0 0 0 0 0 0 0 0 0 0 1 0 0 0 0c1,-1 1,-1 2,-1 1,0 2,0 3,1l0 0 0 0c0,0 1,1 1,2 0,1 -1,2 -1,2l-1 1 1 0c1,0 1,0 2,1 1,0 1,1 1,2l0 0c0,1 0,2 -1,2 -1,1 -1,1 -2,1l-1 0 1 1c0,0 1,1 1,2 0,1 -1,2 -1,2l0 0 0 0c-1,1 -2,1 -3,1 -1,0 -1,0 -2,-1l0 0 0 0 0 1c0,0 -1,1 -1,2 -1,0 -2,1 -3,1l0 0 0 0 0 0 0 0 0 0 0 0 0 0 0 0 0 0 0 0 0 0c0,0 0,0 0,0l0 0 0 0 0 0 0 0 0 0 0 0 0 0 0 0 0 0 0 0 0 0 0 0 0 0 0 0 0 0 0 0 0 0 0 0 0 0 0 0 0 0 0 0 0 0 0 0 0 0 0 0 -1 0 0 0 0 0 0 0 0 0 0 0 0 0 0 0 0 0 0 0 0 0 0 0 0 0 0 0 0 0 0 0 0 0 0 0 0 0 0 0 0 0 0 0 0 0 0 0 0 0 0 0 0 0 0 0 0 0 0 0 0 0 0 0 0 0 0 0 0 0 0 0 0 0 0 0 0 0 0 0 0 0 0 0 0 0 0 0 0 0 0 0 0 0 0 0 0 -1 0 0 0 0 0 0 0 0 0 0 0 0 0 0 0 0 0 0 0 0 0 0 0 0 0 0 -1 0 0 0 0 0 0 0 0 0 0 0 0 0 0 0 0 0 0 0 0 0 0 0 0 0 0 0 0 0 0 0 0 0 0 0 0 0 0 0 0 0 0 0 0 0 0 0 0 0 0 0 0 0 0 0 0 0 0 0 0 0 0 0 0 0 0 0 0 0 0 0 0 0 0 0 0 0 0 0 0 0 0 0 0 0 0 0 0 0 0 0 0 0 0 0 0 0 0 0 0 0 0 0 0 0 0 0 0 0 0 0 0 0 0 0 0 0 0 0 0 0 0 0 0 0 0 0 0 0 0 0 0 0 0 0 0 0 0 0 0 0 0 0 0 0 0 0 0 0 0 0 0 0 0 0 0 0 0 0 0 0 0 0 0 0 0 0 0 0 0 0c0,0 0,0 0,0l0 0 0 0 -1 -1 0 0 0 0 0 0 0 0 0 0 0 0 0 0 0 0 0 0 0 0 0 0 0 0 0 0 0 0 0 0 0 0 0 0 0 0 0 0 0 0 0 0 0 0 0 0 0 0 0 0 0 0 0 0 0 0 0 0 0 0 0 0 0 0 0 0 0 0 0 0 0 0c0,0 0,0 0,0l0 0 0 0 0 0 0 0 0 0 0 0 0 0 0 0 0 0 0 0 0 0 0 0 0 0 0 0 0 0 0 0 0 0 0 0 0 0 0 0 0 0 0 0 0 0 0 0 0 0 0 0 0 0 0 -1 0 0 0 0 0 0 0 0 0 0 0 0 0 0 0 0 0 0 0 0 0 0 0 0 0 0 0 0 0 0 0 0 0 0 0 0 0 0 0 0 0 0 0 0 0 0 0 0 0 0 0 0 0 0 0 0 0 0 0 0 0 0 0 0 0 0 0 0 0 0 0 0 0 0 0 0 0 0c0,0 0,0 0,0l0 0 0 0 0 0 0 0 0 0 0 0 0 0 0 0 0 0 0 0 0 0 0 0 0 -1 0 0c-1,1 -2,1 -3,1 -1,0 -2,0 -2,-1l0 0c-1,0 -1,-1 -1,-2 0,-1 0,-2 1,-2l0 -1 0 0c-1,0 -2,0 -3,-1 0,0 -1,-1 -1,-2l0 0c0,-1 1,-2 1,-2 1,-1 2,-1 3,-1l0 0 0 -1c-1,0 -1,-1 -1,-2 0,-1 0,-2 1,-2l0 0 0 0c0,-1 1,-1 2,-1 1,0 2,0 3,1l0 0 0 -1c0,0 0,-1 1,-2 0,0 1,-1 2,-1l0 0 0 0 0 0z"/><path fill="#fecf41" fill-rule="nonzero" d="M459 320c2,0 3,1 4,2 0,0 1,2 1,3 0,1 -1,3 -1,3 -1,1 -2,2 -4,2 -1,0 -2,-1 -3,-2 -1,0 -2,-2 -2,-3 0,-1 1,-3 2,-3 1,-1 2,-2 3,-2z"/><g><path fill="#5c5f64" fill-rule="nonzero" d="M499 390l-70 0c0,0 -1,1 -1,1l10 52 0 0c0,1 0,1 0,1l52 0c0,0 0,0 0,-1l10 -52c0,0 0,-1 -1,-1z"/><path fill="#4b4d51" d="M429 390l36 0 8 0 26 0c1,0 1,1 1,1l-2 11 -68 0 -2 -11c0,0 1,-1 1,-1z"/></g></g><polygon fill="#bdbfc1" points="512 443 512 445 0 445 0 443"/></svg>